<?xml version="1.0" encoding="utf-8"?>
<!-- Generator: Adobe Illustrator 23.0.5, SVG Export Plug-In . SVG Version: 6.00 Build 0)  -->
<svg version="1.1" id="Слой_1" xmlns="http://www.w3.org/2000/svg" xmlns:xlink="http://www.w3.org/1999/xlink" x="0px" y="0px"
	 viewBox="0 0 2670 2000" style="enable-background:new 0 0 2670 2000;" xml:space="preserve">
<style type="text/css">
	.st0{fill:#FFFFFF;}
	.st1{fill:#E3EAFF;}
	.st2{fill:#201D40;}
	.st3{fill:#F37A50;}
	.st4{fill:#DE623C;}
	.st5{fill:#2C2858;}
	.st6{fill:#E62552;}
	.st7{fill:#C4204A;}
	.st8{fill:#95A6DB;}
	.st9{fill:#768FDB;}
	.st10{fill:#8A284C;}
	.st11{fill:#494C7F;}
	.st12{fill:#0E6A41;}
	.st13{fill:#FF4F78;}
	.st14{fill:#3F964F;}
	.st15{fill:#FFE91D;}
</style>
<rect x="0" class="st0" width="2670" height="2000"/>
<g>
	<path class="st1" d="M404.99,1941.1c-181.58-197.71-429.75-401.86-332.44-710.25c64.01-202.84,220.95-259.38,351.4-384.45
		c64.38-61.73,23.89-151.58,22.69-240.75c-2.73-228.37,252.13-405.57,486.43-401.87c253.79,4,363.65,259.15,576.54,272.84
		c83.6,1.28,158.45-47.78,232.42-86.75c219.16-115.48,566.91-41.84,584.49,237.42c4.54,150.81-167.11,393.45,4.87,472.77
		c137.06,63.22,275.53,86.5,300.23,312.61c32.33,295.95-138.59,458.37-361.31,534.54L404.99,1941.1z"/>
	<g>
		<path class="st0" d="M523.74,815.65h252.68c31.28,0,56.63,25.36,56.63,56.63v117.79c0,31.28-25.35,56.63-56.63,56.63h-1.88
			l20.28,67.94c0.89,2.99-2.56,5.37-5.04,3.48l-93.62-71.42H523.74c-31.28,0-56.63-25.35-56.63-56.63V872.28
			C467.11,841.01,492.46,815.65,523.74,815.65z"/>
		<path class="st1" d="M776.3,914.56H533.71c-15.48,0-28.03-12.55-28.03-28.03l0,0c0-15.48,12.55-28.03,28.03-28.03H776.3
			c15.48,0,28.03,12.55,28.03,28.03l0,0C804.33,902.01,791.78,914.56,776.3,914.56z"/>
		<path class="st1" d="M776.3,1000.17H533.71c-15.48,0-28.03-12.55-28.03-28.03l0,0c0-15.48,12.55-28.03,28.03-28.03H776.3
			c15.48,0,28.03,12.55,28.03,28.03l0,0C804.33,987.62,791.78,1000.17,776.3,1000.17z"/>
	</g>
	<g>
		<path class="st0" d="M2070.1,497.7h-275.56c-34.11,0-61.76,27.65-61.76,61.76v128.46c0,34.11,27.65,61.76,61.76,61.76h2.04
			l-22.12,74.09c-0.97,3.26,2.79,5.86,5.5,3.8l102.1-77.89h188.04c34.11,0,61.76-27.65,61.76-61.76V559.46
			C2131.86,525.35,2104.21,497.7,2070.1,497.7z"/>
		<path class="st1" d="M2067.77,606.27h-277.45c-13.76,0-24.92-11.16-24.92-24.92v-6.23c0-13.76,11.16-24.92,24.92-24.92h277.45
			c13.76,0,24.92,11.16,24.92,24.92v6.23C2092.69,595.11,2081.53,606.27,2067.77,606.27z"/>
		<path class="st1" d="M1932.34,691.03h-129.92c-15.48,0-28.03-12.55-28.03-28.03v0c0-15.48,12.55-28.03,28.03-28.03h129.92
			c15.48,0,28.03,12.55,28.03,28.03v0C1960.37,678.48,1947.82,691.03,1932.34,691.03z"/>
	</g>
	<g>
		<path class="st0" d="M231.17,1449.49c10.44-7.89,22.98-11.84,37.6-11.84c31.57,0,48.28,17.18,48.28,41.32
			c0,13.93-6.73,28.09-20.43,42.25c-17.41,18.34-29.94,27.39-37.84,27.39c-7.66,0-13.23-6.04-13.23-13.23c0-6.5,6.04-13,16.48-22.52
			c0.7-0.7,1.39-1.39,1.86-1.63c11.84-10.91,15.55-16.95,15.55-24.37c0-9.29-6.27-14.39-15.32-14.39c-4.18,0-9.05,0.93-14.86,2.79
			c-5.8,1.86-9.98,2.79-12.53,2.79c-6.5,0-13.93-5.57-13.93-14.86C222.81,1458.31,225.6,1453.67,231.17,1449.49z M262.97,1604.31
			c-14.16,0-23.68-10.68-23.68-23.68c0-11.14,9.52-21.82,23.68-21.82c12.3,0,21.82,10.68,21.82,21.82
			C284.79,1593.4,275.74,1604.31,262.97,1604.31z"/>
	</g>
	<g>
		<path class="st0" d="M2127.52,928.62c6.87-5.19,15.11-7.79,24.73-7.79c20.76,0,31.75,11.3,31.75,27.17
			c0,9.16-4.43,18.47-13.43,27.78c-11.45,12.06-19.69,18.01-24.88,18.01c-5.04,0-8.7-3.97-8.7-8.7c0-4.27,3.97-8.55,10.84-14.81
			c0.46-0.46,0.92-0.92,1.22-1.07c7.79-7.17,10.23-11.14,10.23-16.03c0-6.11-4.12-9.46-10.08-9.46c-2.75,0-5.95,0.61-9.77,1.83
			c-3.82,1.22-6.56,1.83-8.24,1.83c-4.28,0-9.16-3.66-9.16-9.77C2122.02,934.42,2123.85,931.36,2127.52,928.62z M2148.43,1030.44
			c-9.31,0-15.57-7.02-15.57-15.57c0-7.33,6.26-14.35,15.57-14.35c8.09,0,14.35,7.02,14.35,14.35
			C2162.78,1023.26,2156.83,1030.44,2148.43,1030.44z"/>
	</g>
	<g>
		<g>
			<path class="st0" d="M2584.11,1492.77h-289.82c-5.12,0-9.28-4.15-9.28-9.28v-249.48c0-5.12,4.15-9.28,9.28-9.28
				s9.28,4.15,9.28,9.28v240.2h280.55c5.12,0,9.28,4.15,9.28,9.28C2593.39,1488.62,2589.24,1492.77,2584.11,1492.77z"/>
		</g>
		<g>
			<g>
				<path class="st0" d="M2316.23,1431.79c-2.32,0-4.65-0.87-6.45-2.61c-3.68-3.56-3.78-9.44-0.22-13.12l93.67-96.9
					c3.08-3.19,8-3.75,11.72-1.34l44.29,28.73l46.71-54.27c3.34-3.88,9.2-4.32,13.08-0.98c3.88,3.34,4.32,9.2,0.98,13.08
					l-51.99,60.41c-3.03,3.52-8.19,4.26-12.08,1.73l-44.68-28.98l-88.36,91.4C2321.08,1430.84,2318.66,1431.79,2316.23,1431.79z"/>
			</g>
			<g>
				<g>
					<polygon class="st0" points="2520.22,1332.07 2507.01,1305.29 2478.56,1296.21 2541.89,1264.76 					"/>
				</g>
			</g>
		</g>
	</g>
	<g>
		<path class="st0" d="M637.01,588.08c-30.96,0-56.14-25.19-56.14-56.14c0-30.96,25.19-56.14,56.14-56.14
			c30.96,0,56.14,25.19,56.14,56.14C693.15,562.89,667.97,588.08,637.01,588.08z M637.01,491.26c-22.43,0-40.68,18.25-40.68,40.68
			c0,22.43,18.25,40.68,40.68,40.68c22.43,0,40.68-18.25,40.68-40.68C677.69,509.5,659.44,491.26,637.01,491.26z"/>
	</g>
	<g>
		<path class="st1" d="M2349.81,1034.92c-22.68,0-41.12-18.45-41.12-41.12c0-22.67,18.45-41.12,41.12-41.12
			c22.67,0,41.12,18.45,41.12,41.12C2390.93,1016.47,2372.48,1034.92,2349.81,1034.92z M2349.81,964c-16.43,0-29.8,13.37-29.8,29.8
			c0,16.43,13.37,29.8,29.8,29.8s29.79-13.37,29.79-29.8C2379.6,977.37,2366.24,964,2349.81,964z"/>
	</g>
	<g>
		<path class="st0" d="M190.97,1260.35c-20.36,0-36.92-16.56-36.92-36.92s16.56-36.92,36.92-36.92c20.36,0,36.92,16.56,36.92,36.92
			S211.33,1260.35,190.97,1260.35z M190.97,1196.67c-14.75,0-26.75,12-26.75,26.75c0,14.75,12,26.75,26.75,26.75
			c14.75,0,26.75-12,26.75-26.75C217.73,1208.67,205.73,1196.67,190.97,1196.67z"/>
	</g>
	
		<ellipse transform="matrix(0.1602 -0.9871 0.9871 0.1602 1386.9176 2478.7603)" class="st0" cx="2150.18" cy="424.32" rx="20.09" ry="20.09"/>
	<path class="st1" d="M409.51,796.24c0,21.81-17.68,39.5-39.5,39.5c-21.81,0-39.5-17.68-39.5-39.5c0-21.81,17.68-39.5,39.5-39.5
		C391.83,756.74,409.51,774.43,409.51,796.24z"/>
	<path class="st1" d="M2290.3,346.43c0,16.4-13.29,29.69-29.69,29.69c-16.4,0-29.69-13.29-29.69-29.69
		c0-16.4,13.29-29.69,29.69-29.69C2277,316.74,2290.3,330.04,2290.3,346.43z"/>
	<path class="st1" d="M2435.61,1059.44c0,14-11.35,25.35-25.34,25.35c-14,0-25.35-11.35-25.35-25.35s11.35-25.35,25.35-25.35
		C2424.26,1034.1,2435.61,1045.44,2435.61,1059.44z"/>
	<path class="st0" d="M2216.21,499.98c0,17.45-14.15,31.6-31.6,31.6c-17.45,0-31.6-14.15-31.6-31.6c0-17.45,14.15-31.6,31.6-31.6
		C2202.06,468.38,2216.21,482.53,2216.21,499.98z"/>
	<path class="st0" d="M762.87,442.59c0,17.7-14.35,32.05-32.05,32.05c-17.7,0-32.05-14.35-32.05-32.05
		c0-17.7,14.35-32.05,32.05-32.05C748.52,410.54,762.87,424.89,762.87,442.59z"/>
</g>
<path class="st2" d="M2278.69,1958.41H381.42c-6.19,0-11.21-5.02-11.21-11.21l0,0c0-6.19,5.02-11.21,11.21-11.21h1897.26
	c6.19,0,11.21,5.02,11.21,11.21l0,0C2289.9,1953.39,2284.88,1958.41,2278.69,1958.41z"/>
<g>
	<g>
		<polygon id="v-2_2_" class="st3" points="1009.02,976.95 1009.06,976.95 1038.18,977.06 1044.77,1045.84 1010.78,1063.79 
			974.53,1046.04 980.38,977.06 		"/>
		<g>
			<path class="st3" d="M929.01,946.59c17.92,44.79,60.97,69.68,96.15,55.61c35.18-14.08,49.16-61.8,31.24-106.58
				c-17.92-44.79-60.97-69.68-96.15-55.61C925.08,854.09,911.09,901.81,929.01,946.59z"/>
			<path d="M1041.1,910.31c2.08,2.99,6.18,3.73,9.17,1.65c2.99-2.08,3.72-6.18,1.65-9.17c-2.08-2.99-6.19-3.73-9.17-1.65
				C1039.76,903.22,1039.02,907.33,1041.1,910.31z"/>
			<path d="M991.75,930.46c2.25,3.23,6.69,4.03,9.93,1.78c3.23-2.25,4.03-6.69,1.78-9.93c-2.25-3.23-6.69-4.03-9.93-1.78
				C990.3,922.78,989.5,927.22,991.75,930.46z"/>
			<path class="st4" d="M1031.1,920.83c8.91,7.02,20.05,15.5,20.05,15.5s0.11,10.74-12.44,15.4c4.54-4.12,8.53-9.6,3.8-15.93
				C1037.78,929.47,1031.1,920.83,1031.1,920.83z"/>
			<g>
				<path class="st2" d="M978.76,926.17c-0.25,0-0.51-0.03-0.77-0.09c-1.77-0.42-2.86-2.19-2.44-3.96c1.15-4.82,5.98-13.95,16-14
					c1.83,0.02,3.29,1.46,3.3,3.27c0.01,1.82-1.46,3.29-3.27,3.3c-7.42,0.04-9.62,8.86-9.64,8.95
					C981.6,925.15,980.25,926.17,978.76,926.17z"/>
			</g>
			<g>
				<path class="st2" d="M1034.2,896.38c-0.47,0-0.95-0.12-1.38-0.38c-1.31-0.77-1.74-2.44-0.98-3.75c0.12-0.2,3-5.03,8.44-6.03
					c3.72-0.69,7.56,0.53,11.42,3.62c1.18,0.95,1.37,2.67,0.43,3.85c-0.94,1.18-2.67,1.37-3.85,0.43c-2.56-2.05-4.92-2.89-7-2.51
					c-2.96,0.55-4.7,3.39-4.71,3.42C1036.06,895.89,1035.14,896.38,1034.2,896.38z"/>
			</g>
			<path class="st2" d="M904.54,913.14c-15.16-43.16,21.77-67.97,21.77-67.97s-9.91-0.89-11.09-14.8c7.42,2.31,15.73,2.15,23.03-0.5
				c49.22-17.82,83.11-17.58,83.11,3.48c0,7.5,32.51,2.36,29.78,52.79c0.19-3.56-11.42-24.29-22.4-26.36
				c-11.02-2.08-1.07,12.6-24,15.75c-23.15,3.18-40.16-2.44-54.3,10.61c-11.06,11.38-13.81,69.31-12.12,72.8
				C934.46,950.95,911.2,932.11,904.54,913.14z"/>
			<path class="st2" d="M1063.18,920.83c0,0,2.09,26.28-1.7,34.41c-3.94-10.54-12.41,0.63-20.36,1.68
				c-19.22,2.54-53.89-3.86-57.32,24.96c-23.48,7.43-45.48-42.84-45.48-42.84c-1.35,56.16,39.75,88.05,98.89,78.71
				C1076.17,1011.59,1079.78,957.34,1063.18,920.83z"/>
			<g>
				<path class="st4" d="M1022.67,974.68c-3.8-0.91-7.76-2.46-11.86-4.65c-1.07-0.57-1.47-1.9-0.9-2.97c0.57-1.07,1.9-1.47,2.97-0.9
					c9.1,4.86,17.25,6.25,24.24,4.11c8.64-2.64,12.58-9.91,12.62-9.99c0.57-1.07,1.89-1.48,2.96-0.92c1.07,0.56,1.48,1.88,0.92,2.95
					c-0.19,0.36-4.75,8.91-15.15,12.12C1033.6,975.95,1028.31,976.02,1022.67,974.68z"/>
			</g>
			<g>
				<path class="st3" d="M937.76,939.41c9.89,5.56,14.22,16.62,9.68,24.71c-4.55,8.09-16.25,10.15-26.14,4.6
					c-9.89-5.55-14.22-16.62-9.68-24.71C916.16,935.91,927.87,933.85,937.76,939.41z"/>
				<g>
					<path class="st4" d="M936.25,963.66c0.31-0.21,0.57-0.5,0.76-0.85c2.72-5.03,2.27-10.16-1.19-13.72
						c-3.55-3.64-9.27-4.69-13.62-2.5c-1.22,0.62-1.71,2.11-1.09,3.33c0.62,1.22,2.11,1.71,3.33,1.09c2.38-1.2,5.82-0.53,7.82,1.53
						c1.93,1.98,2.06,4.79,0.38,7.91c-0.65,1.21-0.2,2.71,1,3.36C934.5,964.27,935.51,964.18,936.25,963.66z"/>
				</g>
			</g>
		</g>
	</g>
	<path d="M1042.72,1895.52c6.2-16.83,19.44-18.7,19.44-18.7c25.75,35.53,88.98,13.73,86.89,61.78c-96.16-0.62-136.13,0-136.13,0
		c0.13-11.04,2.03-37.23,4.25-47.49l5.01,0.92L1042.72,1895.52z"/>
	<path d="M898.84,1896.45c6.2-16.83,19.44-18.7,19.44-18.7c25.75,35.53,88.98,13.73,86.89,61.78c-96.16-0.62-136.13,0-136.13,0
		c0.13-11.04,2.03-37.23,4.25-47.49l5.01,0.92L898.84,1896.45z"/>
	<path class="st2" d="M1106.68,1334.43c0,0,15.61,227.71,9.27,278.33c-6.34,50.62-28.8,115.53-26.26,282.97
		c-31.35,7.85-76.76,0-76.76,0s-6.73-189.34,26.4-273.91c-13.47-82.15-56.71-270.29-56.71-270.29L1106.68,1334.43z"/>
	<path class="st5" d="M1047.34,1340.65c0,0-31.52,255.64-46.96,304.13c-15.43,48.49-45.53,89.49-73.47,254.44
		c-32.21,1.61-62.21,0-62.21,0s4.35-209.24,54.52-256.82c1.7-83.3-8.11-300.1-8.11-300.1L1047.34,1340.65z"/>
	<g id="v_62_">
		<path id="h-5_2_" class="st6" d="M902.01,1050.52c0,0,54.75-19.17,73.01-10.38c56.73,27.32,69.75,0,69.75,0
			c18.13,1.56,72.86,10.38,72.86,10.38c0,61.12,4.08,122.44,2.97,168.69c-0.78,40.28,6.89,149.88,6.89,149.88
			s-60.37,15.83-117.47,16.24c-57.11-0.37-115.23-15.6-115.23-15.6s3.05-111.01,5.59-152.27
			C899.55,1171.22,902.01,1111.48,902.01,1050.52z"/>
	</g>
	<g id="c_4752_">
		<path id="c_4760_" class="st7" d="M1214.96,1141.36c-22.6-53.92-89.66-88.22-97.33-90.83l-15.56,69.22
			c32.22,19.05,55.6,39.66,55.6,39.66c-3.96,19.28-3.3,38.18-14.46,62.56c0,0,9.69-13.37,21.65-5.46c11.62,7.69,33-8.01,33-8.01
			S1232.22,1182.54,1214.96,1141.36z"/>
	</g>
	<g id="c_4746_">
		<g id="c_4751_">
			<g id="c_4754_">
				<path id="c_4759_" class="st8" d="M1202.36,1277.63c0.39,0.12,0.78,0.2,1.17,0.24h1.29c2.36-0.25,4.45-1.86,5.2-4.27
					l60.25-194.25c0.12-0.39,0.2-0.78,0.24-1.18c0.03-0.26,0.01-0.51,0.01-0.77c0-0.15,0.01-0.31,0-0.46
					c-0.01-0.14-0.05-0.26-0.08-0.4c-0.37-2.21-1.91-4.14-4.19-4.85c-0.37-0.11-0.75-0.2-1.15-0.25c-0.44-0.05-0.88-0.04-1.31,0
					h-151.67l-60.78,206.41h151.12L1202.36,1277.63z"/>
				<path id="c_4757_" class="st9" d="M1113.51,1071.69c-3.23-1-6.66,0.8-7.66,4.03l-59.87,193.77l-0.14,0.45
					c-0.99,3.22,0.8,6.62,4,7.63l0.01,0.01c3.23,1,6.66-0.8,7.66-4.03l60.03-194.21
					C1118.54,1076.12,1116.74,1072.69,1113.51,1071.69z"/>
			</g>
		</g>
		<path id="c_4748_" class="st3" d="M1228.1,1194.93c0.57-0.38,1.18-0.61,1.82-0.79c-0.07-0.1-0.14-0.18-0.2-0.28
			c-3.77-5.69-3.52-12.5,0.56-15.2c0.67-0.45,1.41-0.74,2.18-0.91c-1.06-4.21-0.11-8.24,2.81-10.17c1.16-0.77,2.5-1.11,3.91-1.09
			c-1.33-4.14-0.27-8.49,2.99-10.65c4.08-2.7,10.01-0.96,13.23,3.9c3.22,4.86,2.52,10.99-1.56,13.7c-1.03,0.68-2.19,1.08-3.38,1.22
			c2.72,5.3,2.17,11.1-1.52,13.54c-0.67,0.44-1.41,0.74-2.18,0.91c1.06,4.21,0.11,8.24-2.81,10.17c-1.08,0.71-2.31,1.06-3.61,1.09
			c1.35,3.62,0.49,7.53-2.38,9.43c-3.45,2.29-8.45,0.81-11.17-3.29C1224.06,1202.39,1224.65,1197.21,1228.1,1194.93z"/>
		<path class="st3" d="M1041.63,1182.65l13.83-8.01c0,0,3.83-19.61,26.03-20.08c-2.54,8.23-6.21,20.08-6.21,20.08
			s10.93,8.48,36.85-6.04c25.34-5.69,14.51,12.78,22.91,14.11c12.39,1.96-9.03,26.31-34.33,30.03c-32.74,4.82-36.62-1.88-36.62-1.88
			l-18.52,6.47L1041.63,1182.65z"/>
		<path id="c_4747_" class="st10" d="M913.69,1203.6c46.21-3.23,125.04-26.05,125.04-26.05c12.62,19.35,9.13,45.05,9.13,45.05
			c-71.77,62.92-179.77,83.26-212.91,68.11c-30.25-13.82-8.9-198,67.07-240.19l0,0C928.06,1094.59,913.69,1203.6,913.69,1203.6z"/>
	</g>
	<g>
		<path d="M1658.48,1878.44c-25.75,34.35-88.98,13.27-86.89,59.73c96.16-0.6,136.13,0,136.13,0c-0.13-10.67-2.03-36-4.25-45.91
			L1658.48,1878.44z"/>
		<path d="M1802.35,1879.33c-25.75,34.35-88.98,13.27-86.89,59.73c96.16-0.6,136.13,0,136.13,0c-0.13-10.67-2.03-35.99-4.25-45.91
			L1802.35,1879.33z"/>
		<path class="st2" d="M1613.96,1354.08c0,0-15.61,220.13-9.27,269.07c6.34,48.94,28.8,111.68,26.26,273.56
			c31.35,7.59,76.76,0,76.76,0s6.73-183.04-26.4-264.8c13.47-79.41,56.71-261.31,56.71-261.31L1613.96,1354.08z"/>
		<path class="st5" d="M1673.3,1360.1c0,0,31.53,247.14,46.96,294.01c15.43,46.88,45.53,86.51,73.47,245.98
			c32.21,1.56,70.6-6.37,70.6-6.37s-12.74-195.91-62.91-241.91c-1.7-80.53,8.11-290.13,8.11-290.13L1673.3,1360.1z"/>
		<g>
			<g>
				<g>
					<path class="st3" d="M1801.7,955.78c-17.09,42.7-58.13,66.43-91.66,53.01c-33.54-13.42-46.87-58.92-29.78-101.61
						c17.09-42.7,58.13-66.44,91.66-53.02C1805.45,867.58,1818.78,913.08,1801.7,955.78z"/>
					<path d="M1694.83,921.19c-1.98,2.85-5.9,3.55-8.74,1.57c-2.85-1.98-3.55-5.9-1.57-8.75c1.98-2.85,5.9-3.55,8.74-1.57
						C1696.11,914.43,1696.81,918.34,1694.83,921.19z"/>
					<path d="M1741.88,940.4c-2.14,3.08-6.38,3.84-9.47,1.7c-3.08-2.15-3.84-6.38-1.7-9.47c2.14-3.08,6.38-3.84,9.47-1.7
						C1743.27,933.07,1744.03,937.31,1741.88,940.4z"/>
					<path class="st4" d="M1704.37,931.22c-8.49,6.7-19.11,14.77-19.11,14.77s-0.11,10.24,11.86,14.68
						c-4.33-3.93-8.13-9.15-3.62-15.19C1698,939.45,1704.37,931.22,1704.37,931.22z"/>
					<g>
						<path d="M1754.26,936.3c-1.42,0-2.7-0.97-3.05-2.41c-0.08-0.33-2.19-8.5-9.19-8.54c-1.73-0.01-3.13-1.42-3.12-3.15
							c0.01-1.73,1.43-3.13,3.15-3.12c9.56,0.05,14.16,8.75,15.26,13.35c0.4,1.68-0.64,3.37-2.32,3.78
							C1754.75,936.28,1754.51,936.3,1754.26,936.3z"/>
					</g>
					<g>
						<path d="M1701.41,907.9c-0.89,0-1.76-0.46-2.25-1.28c-0.05-0.08-1.74-2.78-4.54-3.28c-1.97-0.35-4.21,0.46-6.63,2.4
							c-1.13,0.9-2.77,0.72-3.67-0.41c-0.9-1.13-0.72-2.77,0.41-3.67c3.68-2.94,7.34-4.1,10.89-3.45c5.19,0.96,7.94,5.56,8.05,5.75
							c0.73,1.25,0.31,2.84-0.93,3.57C1702.31,907.79,1701.86,907.9,1701.41,907.9z"/>
					</g>
					<path d="M1789.77,960.24c-12.36-39.73,3.27-60.84,3.27-60.84c-10.61-2.13-14.73,1.54-14.73,1.54
						c-5.79-11.88-1.31-20.4-1.31-20.4c-21.93-8.55-32.85,5.65-52.63,10.44c-27.09,6.55-60.56-4.25-63.69-37.33
						c-0.45-4.79,4.81-7.89,8.81-5.21c3.71,2.48,8.63,4.49,14.76,4.31c0,0-5.68-6.4-5.97-15.26c-0.16-4.89,5.57-7.52,9.32-4.4
						c5.63,4.69,16.08,9.12,34.71,5.63c12.4-2.32,40.79-22.18,58.47-18.31c14.46,3.17,25.93,15.47,30.86,33.08
						c0,0,35.53,3.68,39.1,42.79c3.5,38.42-41,67.9-41,67.9L1789.77,960.24z"/>
					<path class="st3" d="M1784.93,953.61c-9.41,5.33-13.5,15.9-9.14,23.6c4.36,7.7,15.53,9.62,24.94,4.29
						c9.41-5.33,13.5-15.9,9.14-23.6C1805.5,950.2,1794.34,948.28,1784.93,953.61z"/>
					<g>
						<path class="st4" d="M1786.45,976.72c-0.29-0.2-0.54-0.48-0.72-0.81c-2.61-4.79-2.2-9.68,1.09-13.09
							c3.37-3.49,8.83-4.51,12.97-2.43c1.17,0.59,1.64,2.01,1.05,3.17c-0.58,1.17-2.01,1.64-3.17,1.05
							c-2.27-1.14-5.55-0.49-7.45,1.49c-1.83,1.9-1.95,4.57-0.33,7.54c0.63,1.15,0.2,2.58-0.95,3.21
							C1788.12,977.3,1787.16,977.21,1786.45,976.72z"/>
					</g>
					<path class="st0" d="M1687.21,974.32c-0.92-1.5,0.39-3.38,2.11-3.01c4.39,0.93,11.66,2.3,18.67,2.93
						c7,0.63,14.4,0.56,18.89,0.42c1.76-0.05,2.72,2.02,1.55,3.34c-3.61,4.06-10.85,10.05-21.58,9.1
						C1696.1,986.13,1690.04,978.95,1687.21,974.32z"/>
				</g>
			</g>
		</g>
		<path class="st2" d="M1642.07,1030.26c0,0,1.6-4.35-136.78-3.23l-37.1,43.85c38.4,30.79,166.99,36.26,166.99,36.26
			L1642.07,1030.26z"/>
		<polygon class="st8" points="1692.36,1026.7 1736,1022.62 1778.23,1034.4 1730.65,1083.36 		"/>
		<path class="st3" d="M1707.49,1049.17c17.79,14.6,21.42,24.7,59.21,5.18l5.67-58.1l-61.51-4.85L1707.49,1049.17z"/>
		<path class="st8" d="M1789.44,1057.78L1789.44,1057.78l-12.94-5.12l1.73-18.27l-35.88,28.81l-10.13,1.61l-9.68-3.39l-30.18-34.74
			l-1.55,18.29l-11.41,2.29l0,0l-41.16,6.66l-4.9,228.44l-16.24,77.72c54.62,18.17,115.69,22.7,175.73,14.42l-2.02-78.02
			l42.65-223.26L1789.44,1057.78z"/>
		<polygon class="st5" points="1724.33,1087.9 1698.55,1262.32 1712.82,1282.16 1731.44,1267.86 1737.77,1089.35 		"/>
		<polygon class="st5" points="1722.79,1067.31 1732.22,1064.82 1741.82,1069.01 1737.76,1089.69 1724.24,1088.48 		"/>
		<g>
			<path class="st5" d="M1691.76,1028.16l-6.46,210.7l-27.89,135.67c0,0-44.1-4.45-71.2-30.23l34.73-102.14l11.87-213.44
				L1691.76,1028.16z"/>
			<polygon class="st11" points="1691.76,1028.16 1685.33,1236.03 1653.23,1076.72 			"/>
		</g>
		<g>
			<path class="st5" d="M1781.53,1041.63l-57.27,341.58c0,0,76,9.34,107.25-11.22l-16.96-112.29l20.73-190.63L1781.53,1041.63z"/>
			<polygon class="st11" points="1781.53,1041.63 1748.06,1241.84 1807.99,1090.79 			"/>
		</g>
		<path class="st3" d="M1403.1,840.76c3.05,10.66,3.96,22.15,17.47,27.9c0,0-2,35.37-0.51,64.38c0,0,32.71-36.89,32.71-36.92
			c-1.88-11.7-3.39-33.81-1.59-46.36c0.47-3.26,1.11-6.5,1.62-9.77c1.41-7.93,3.74-16.05-1.09-25.62
			c-18.67-36.98-12.38-49.15-14.96-50.96c-4.18-1.84-14,5.6-8.45,23.77c5.38,17.58,4.05,26.22,4.05,26.22s-14.11-2.67-19.12,2.27
			C1410.96,817.91,1399.54,828.3,1403.1,840.76z"/>
		<path class="st2" d="M1410.69,890.6c19.06-6.35,29.1-9.21,43.93-9.21c35.05,104.45,60.03,143.81,49.62,173.79
			c-8.69,25-36.18,23-49.62,4.27C1436.88,1034.74,1421.19,940.86,1410.69,890.6z"/>
		<polygon class="st2" points="1835.28,1069.08 1945.7,1241.84 2076.85,1315.89 2036.43,1356.14 1904.85,1298.46 1814.55,1171.05 		
			"/>
		<path class="st0" d="M1732.22,1064.82c0,0-16.24,16.4-31.18,20.6l-17.66-46.7l8.98-12.02L1732.22,1064.82z"/>
		<path class="st0" d="M1732.22,1064.82c0,0,9.26,15.91,27.02,25.82l25.7-42.68l-6.71-13.57L1732.22,1064.82z"/>
	</g>
	<g id="с_1_">
		<path id="с_9_" class="st8" d="M1852.41,1556.64H888.23c-22.66,0-41.03-12.36-41.03-27.61l0,0c0-15.25,18.37-27.61,41.03-27.61
			h964.18c22.66,0,41.03,12.36,41.03,27.61l0,0C1893.45,1544.28,1875.07,1556.64,1852.41,1556.64z"/>
		<g>
			<path class="st8" d="M1249.6,1945.71L1249.6,1945.71c-10.33,0-16.54-11.47-10.9-20.12l254.58-390.13l21.79,14.22l-254.58,390.13
				C1258.1,1943.49,1254,1945.71,1249.6,1945.71z"/>
		</g>
		<g>
			<path class="st8" d="M1491.05,1945.71L1491.05,1945.71c10.34,0,16.54-11.47,10.9-20.12l-254.58-390.13l-21.79,14.22
				l254.58,390.13C1482.55,1943.49,1486.65,1945.71,1491.05,1945.71z"/>
		</g>
	</g>
	<g id="с">
		<path id="с_8_" class="st9" d="M1890.79,1939.53L1890.79,1939.53c-6.88,0-12.46-5.58-12.46-12.46v-220.83h24.93v220.83
			C1903.26,1933.95,1897.68,1939.53,1890.79,1939.53z"/>
		<path id="с_7_" class="st9" d="M1978.25,1939.53L1978.25,1939.53c-6.88,0-12.46-5.58-12.46-12.46v-220.83h24.93v220.83
			C1990.71,1933.95,1985.13,1939.53,1978.25,1939.53z"/>
		<path id="с_6_" class="st9" d="M2093.01,1939.53L2093.01,1939.53c-6.88,0-12.46-5.58-12.46-12.46v-220.83h24.93v220.83
			C2105.47,1933.95,2099.89,1939.53,2093.01,1939.53z"/>
		<path id="с_5_" class="st9" d="M2180.46,1939.53L2180.46,1939.53c-6.88,0-12.46-5.58-12.46-12.46v-220.83h24.93v220.83
			C2192.93,1933.95,2187.35,1939.53,2180.46,1939.53z"/>
		<path id="с_4_" class="st8" d="M2042.56,1378.51v262.79c0,2.99-2.42,5.41-5.41,5.41h-162.93c-16.44,0-29.76,13.33-29.76,29.76
			l0,0c0,16.44,13.33,29.76,29.76,29.76h168.35h29.76c16.44,0,29.76-13.33,29.76-29.76v-29.76v-268.2
			c0-16.44-13.33-29.76-29.76-29.76l0,0C2055.89,1348.75,2042.56,1362.08,2042.56,1378.51z"/>
		<rect id="с_3_" x="2072.33" y="1348.75" class="st8" width="128.82" height="302.79"/>
		<path id="с_2_" class="st9" d="M2171.38,1378.51v262.79c0,2.99-2.42,5.41-5.41,5.41h-162.93c-16.44,0-29.76,13.33-29.76,29.76
			l0,0c0,16.44,13.33,29.76,29.76,29.76h168.35h29.77c16.44,0,29.76-13.33,29.76-29.76v-29.76v-268.2
			c0-16.44-13.33-29.76-29.76-29.76h0C2184.71,1348.75,2171.38,1362.08,2171.38,1378.51z"/>
	</g>
	<g id="с_12_">
		<path id="с_19_" class="st9" d="M837.65,1939.53L837.65,1939.53c6.88,0,12.46-5.58,12.46-12.46v-220.83h-24.93v220.83
			C825.19,1933.95,830.77,1939.53,837.65,1939.53z"/>
		<path id="с_18_" class="st9" d="M750.19,1939.53L750.19,1939.53c6.88,0,12.46-5.58,12.46-12.46v-220.83h-24.93v220.83
			C737.73,1933.95,743.31,1939.53,750.19,1939.53z"/>
		<path id="с_17_" class="st9" d="M635.44,1939.53L635.44,1939.53c6.88,0,12.46-5.58,12.46-12.46v-220.83h-24.93v220.83
			C622.97,1933.95,628.55,1939.53,635.44,1939.53z"/>
		<path id="с_16_" class="st9" d="M547.98,1939.53L547.98,1939.53c6.88,0,12.46-5.58,12.46-12.46v-220.83h-24.93v220.83
			C535.52,1933.95,541.1,1939.53,547.98,1939.53z"/>
		<path id="с_15_" class="st8" d="M685.88,1378.51v262.79c0,2.99,2.42,5.41,5.41,5.41h162.93c16.44,0,29.76,13.33,29.76,29.76l0,0
			c0,16.44-13.33,29.76-29.76,29.76H685.88h-29.76c-16.44,0-29.76-13.33-29.76-29.76v-29.76v-268.2c0-16.44,13.33-29.76,29.76-29.76
			h0C672.56,1348.75,685.88,1362.08,685.88,1378.51z"/>
		
			<rect id="с_14_" x="527.3" y="1348.75" transform="matrix(-1 -1.224647e-16 1.224647e-16 -1 1183.4194 3000.2891)" class="st8" width="128.82" height="302.79"/>
		<path id="с_13_" class="st9" d="M557.06,1378.51v262.79c0,2.99,2.42,5.41,5.41,5.41h162.93c16.44,0,29.76,13.33,29.76,29.76l0,0
			c0,16.44-13.33,29.76-29.76,29.76H557.06H527.3c-16.44,0-29.76-13.33-29.76-29.76v-29.76v-268.2c0-16.44,13.33-29.76,29.76-29.76
			l0,0C543.74,1348.75,557.06,1362.08,557.06,1378.51z"/>
	</g>
	<g>
		<path class="st5" d="M1976.26,1278.09c-27.49-9.92-69.95-31.6-41.73-71.22s27.5-22.33,17.34-70.46
			c-10.16-48.13,24.06-85.99,56.69-76.41c32.62,9.58,40.95,35.98,80.94,29.3c39.99-6.68,73.23,30.72,58.18,63.15
			c-15.05,32.43-21.48,48.05-7.41,66s77.5,37.29,51.04,80.3c-26.45,43.01-38.57,40.37-29.39,62.42s-12,47.15-48.77,43.72
			c-36.77-3.43-70.05-17.33-83.54-58.38C2016.13,1305.46,1976.26,1278.09,1976.26,1278.09z"/>
		<path class="st3" d="M1879.01,1903.25l-21.72,6.49l-16.36-16.72c0.78-1.16,0.03-12.36-2.5-24.3l40.58-6.73
			C1880.63,1874.34,1879.01,1890.76,1879.01,1903.25z"/>
		<path class="st6" d="M1857.45,1905.83c-5.17-13.56-16.21-15.07-16.21-15.07c-21.46,28.62-74.16,11.06-72.41,49.77
			c80.14-0.5,113.45,0,113.45,0c-0.11-8.89-1.69-30-3.54-38.26l-4.18,0.74L1857.45,1905.83z"/>
		<path class="st3" d="M1734.54,1907.29l-22.62,1.55l-13.01-13.85c1.02-0.96,3.48-18.11,3.64-30.31l38.12,1.7
			C1739.53,1878.78,1737.28,1895.1,1734.54,1907.29z"/>
		<path class="st6" d="M1714.38,1905.83c-5.16-13.56-16.2-15.07-16.2-15.07c-21.46,28.62-74.16,11.06-72.41,49.77
			c80.14-0.5,113.45,0,113.45,0c-0.11-8.89-1.69-30-3.54-38.26l-4.18,0.74L1714.38,1905.83z"/>
		<path class="st12" d="M1963.26,1529.09c-61.74,8.31-235.68,72.77-245.37,84.43c-20.02,24.09-9.47,155.15-18.98,263.3l50.55,2.99
			c24.22-88.07,22.29-126.09,33.24-227.11c0,0,198.71,14.88,270.52-33.58C2127.26,1569.14,2013.19,1517.25,1963.26,1529.09z"/>
		<path class="st4" d="M1882.8,1400.69c14.59,2.49,20.21,14.2,23.73,35.76c-55.59,32.75-138.17,35.08-138.17,35.08l-26.32-13.02
			C1742.04,1458.51,1808.26,1434.66,1882.8,1400.69z"/>
		<path class="st4" d="M2034.8,1339.07c-24.33,35.35-117.52,111.37-132.95,113.77l-18.69-52.31c0,0,90.99-98.48,107.56-115.89
			C2019.33,1254.43,2074.63,1281.43,2034.8,1339.07z"/>
		<path class="st13" d="M1932.31,1333.41c19.51-21.02,44.92-68.46,77.98-65.09c33.06,3.37,35.45,38.46,25.48,57.35
			s-44.38,65.45-44.38,65.45L1932.31,1333.41z"/>
		<path class="st3" d="M1938.3,1422.34c14.01,4.83,22.01,48.97,18.08,52.35c-60.08,23.8-185.08-1.94-185.08-1.94l-6.64-22.64
			C1764.66,1450.11,1859.31,1444.31,1938.3,1422.34z"/>
		<path class="st6" d="M2135.98,1566.2c-13.74-70.88-19.66-96-25.37-129.36c-14.1-82.44,27.36-140.39-43.73-179.9l-51.82,8.35
			c-41.9,44.08-67.69,84.09-69.9,111.73c-3.04,35.65,32.34,55,32.34,55l-14.23,97.07c0,0-3.35,7.93,55.08,18.96
			C2076.77,1559.09,2135.98,1566.2,2135.98,1566.2z"/>
		<path class="st3" d="M2093.39,1349.12c-24.33,35.76-128.28,126.64-143.9,127.44l-11.18-54.23c0,0,94.43-110.67,111-128.28
			C2077.92,1263.51,2133.21,1290.82,2093.39,1349.12z"/>
		<path class="st13" d="M1994.01,1349.37c18.15-26.41,54.77-75.15,87.83-71.77c33.06,3.37,35.45,38.46,25.49,57.35
			c-9.97,18.89-44.38,65.45-44.38,65.45L1994.01,1349.37z"/>
		<path class="st3" d="M1764.66,1450.11c-19.11-4.7-60.67-18.66-77.4,25.1c4.2,8.03,19.58-11.8,26.19-13.63
			c10.49-2.92,19.49,2.6,27.43,10.18c11.38,10.88,30.42,0.99,30.42,0.99L1764.66,1450.11z"/>
		<g>
			<path class="st13" d="M1749.79,1500.96h-179.53v-24.11h203.64l0,0C1773.9,1490.16,1763.11,1500.96,1749.79,1500.96z"/>
			<path class="st13" d="M1477.95,1349.52l92.32,151.44l21.34-11.22l-103.53-172.78l0,0
				C1476.28,1323.16,1471.75,1337.73,1477.95,1349.52z"/>
		</g>
		<path class="st3" d="M2090.6,1189.4c-8.73,36.46-39.02,60.46-67.66,53.6c-28.64-6.86-44.77-41.97-36.04-78.43
			c8.73-36.46,39.02-60.46,67.66-53.6C2083.19,1117.83,2099.33,1152.94,2090.6,1189.4z"/>
		<path class="st3" d="M2076.73,1208.61l-47.59,29.5c0,0-4.22,21.03-6.33,27.86c-4.35,14.08,12.31,20.23,26.4,11.47
			c14.09-8.77,17.67-20.49,17.67-20.49L2076.73,1208.61z"/>
		<path class="st5" d="M1983.62,1150.65c13.52,1.16,42.82-1.18,53.51-13.85c7.62,25.72,40,50.21,66.78,61.69
			c1.07-26.39,0.88-74.95-46.44-95.12C2020.3,1087.52,1983.62,1150.65,1983.62,1150.65z"/>
		<path d="M2000.32,1174.15c-1.26,2.53-4.33,3.56-6.87,2.3c-2.53-1.26-3.56-4.34-2.3-6.87c1.26-2.53,4.33-3.56,6.87-2.3
			C2000.55,1168.54,2001.58,1171.62,2000.32,1174.15z"/>
		<path d="M2040.54,1184.07c-1.37,2.74-4.69,3.85-7.43,2.49c-2.74-1.37-3.86-4.69-2.49-7.43c1.37-2.74,4.69-3.86,7.43-2.49
			S2041.9,1181.33,2040.54,1184.07z"/>
		<g>
			<path class="st5" d="M2046.67,1179.48c-0.38-0.19-0.7-0.5-0.89-0.92c-2.78-5.99-10.28-7.16-10.36-7.17
				c-1.05-0.15-1.78-1.13-1.63-2.18c0.15-1.05,1.12-1.78,2.18-1.63c0.39,0.05,9.64,1.45,13.31,9.37c0.45,0.97,0.03,2.11-0.94,2.56
				C2047.79,1179.76,2047.17,1179.74,2046.67,1179.48z"/>
		</g>
		<g>
			<path class="st5" d="M1989.15,1166.73c-0.19-0.09-0.36-0.22-0.51-0.37c-0.75-0.76-0.74-1.98,0.02-2.72
				c5.88-5.81,13.13-3.4,13.43-3.29c1,0.35,1.54,1.44,1.19,2.45c-0.35,1-1.44,1.54-2.44,1.2c-0.24-0.08-5.34-1.7-9.48,2.39
				C1990.76,1166.97,1989.87,1167.09,1989.15,1166.73z"/>
		</g>
		<path class="st4" d="M2003.61,1185.29c-2.81,2.89-5.27,5.87-7.96,7.56c-0.9,0.57-1.19,1.77-0.67,2.7
			c2.17,3.84,8.49,7.01,12.37,8.65c0.57,0.24,1.03-0.5,0.57-0.91c-3.92-3.43-5.6-5.96-6.3-7.35c-0.35-0.69-0.34-1.5,0.01-2.19
			c0.8-1.59,2.4-4.82,3.48-7.5C2005.49,1185.33,2004.31,1184.57,2003.61,1185.29z"/>
		<path class="st3" d="M2076.82,1189.64c-6.96,5.41-9.01,14.42-4.58,20.11c4.43,5.69,13.66,5.92,20.62,0.51
			c6.96-5.41,9.01-14.42,4.58-20.11C2093.01,1184.45,2083.78,1184.22,2076.82,1189.64z"/>
		<g>
			<path class="st4" d="M2080.78,1208.1c-0.26-0.13-0.49-0.32-0.68-0.57c-2.67-3.55-2.92-7.55-0.67-10.68
				c2.3-3.21,6.59-4.68,10.18-3.49c1.01,0.34,1.56,1.42,1.23,2.44c-0.33,1.01-1.42,1.56-2.44,1.23c-1.97-0.65-4.53,0.26-5.83,2.08
				c-1.25,1.75-1.03,3.92,0.62,6.12c0.64,0.85,0.47,2.06-0.38,2.7C2082.2,1208.36,2081.41,1208.41,2080.78,1208.1z"/>
		</g>
		<path class="st14" d="M2032.35,1540.35c-61.74,8.31-235.94,64.77-245.63,76.43c-20.02,24.09,24.55,127.24,38.81,260.04h59.6
			c-0.62-94.62,6.93-181.66-22.18-212.51c0,0,166.97-11.14,250.2-11.14C2155.58,1653.16,2179.06,1509.79,2032.35,1540.35z"/>
		<path class="st0" d="M2001.01,1215.97c-0.82-1.11,0.07-2.66,1.44-2.5c3.49,0.42,9.27,0.99,14.78,1
			c5.51,0.01,11.29-0.56,14.78-0.97c1.38-0.16,2.26,1.39,1.44,2.5c-2.54,3.42-7.78,8.6-16.23,8.59
			C2008.77,1224.58,2003.54,1219.39,2001.01,1215.97z"/>
	</g>
	<g>
		<g>
			<path class="st3" d="M815.37,1438.39c-11.79,7.85-8.53,50.6-4.07,52.78c61.31,7.49,164.86-43.3,164.86-43.3l4.06-22.72
				C980.21,1425.15,893.73,1439.63,815.37,1438.39z"/>
			<path class="st3" d="M680.66,1364.26c21.92,35.05,117.85,125.68,132.74,127.02l12.68-51.38c0,0-86.11-109.17-101.29-126.6
				C698.59,1283.06,644.77,1307.1,680.66,1364.26z"/>
		</g>
		<path class="st5" d="M733.09,1176.98c2.64-35.88-7.74-67.59-36.35-83.73c-29-16.36-65.33-0.31-65.33-0.31l0,0
			c0,0-30.75-10.94-58.62,19.76c-27.87,30.7-6.79,57.71-18.19,80.1c-6.75,13.26-41.08,15.99-32.21,59.18
			c2.56,12.46,17.54,20.84,30.23,21.67c22.29,1.46,43.05-7.15,52.09,1.46c29.78,28.4,95.77,18.13,105-7.85
			c2.86-8.05,62.22,7.53,56.3-47.33C763,1192.13,730.73,1209.04,733.09,1176.98z"/>
		<g>
			<g>
				<g>
					<polygon class="st3" points="678.7,1292.98 631.57,1284.28 613.9,1307.79 651.45,1384.79 706.7,1337.91 					"/>
				</g>
			</g>
		</g>
		<g>
			<g>
				<g>
					<path class="st14" d="M739.79,1478.64c-0.81-14.65,22.87-74.82,10.41-105.1c-9.08-24.36-24.24-65.26-42.81-72.08
						c-8.76-3.22-17.77-5.46-28.69-8.48c0,0,6.16,30.7-6.67,31.73c-24.71,1.98-40.45-40.43-40.45-40.43
						c-13.32-1.27-74.42,18.8-74.39,23.82c0.14,39.3,32.07,96.63,42.51,139.12c4.11,45.89-11.9,100.8-11.96,106.02
						c0,0,98.29,27.63,156.55-4.45C745.5,1544.32,740.9,1498.87,739.79,1478.64z"/>
				</g>
			</g>
		</g>
		<path class="st14" d="M602.52,1506.09c0,0-21.7,54.74-26.99,89.2c-5.29,34.46,24.57,56.57,24.57,56.57h248.34
			c0,0,26.59-43.12,18.93-72.89c-7.66-29.77-25.27-34.51-25.27-34.51L602.52,1506.09z"/>
		<path class="st4" d="M851.76,1542.94c-31.71-4.47-123.72,31.27-162.96,108.92h109.77L851.76,1542.94z"/>
		<g>
			<path class="st4" d="M816.99,1571.52c4.1-4.48,7.82-10.01,11.09-15.78c9.25-16.3,31.56-19.06,44.15-5.17
				c45.77,50.46,143.34,165.49,165.09,179.81c6.14,4.04,42.01,24.69,76.1,20.61c0,0,16.83,6.41,5.62,19.77
				c-5.77,6.88-92.4,13.98-92.4,13.98l-6.75-25.44c-50.43-37.32-113.21-34.64-166.44-102.88
				C824.13,1618.85,816.99,1571.52,816.99,1571.52z"/>
			<path class="st6" d="M1044.18,1799.42l34.86,22.63l4.79-5.71l-28.28-26.37c16.06-12.67,53.27-2.1,53.27-2.1
				c12.19-7.87,35.94-33.4,38.39-47.08c-7.8-9.72-33.79,10.28-33.79,10.28c0.95,4.33-7.26,19.34-13.79,21.9
				c-28.39,6.12-56.68-1.94-79.76-13.66C1019.88,1759.3,1000.59,1788.53,1044.18,1799.42z"/>
		</g>
		<g>
			<path class="st3" d="M816.48,1578.38c-6.35,1.71-11.08,7.03-12,13.54c-2.48,17.61-15.31,53.28,2.04,90.63
				c42.59,91.7,67.73,152.11,72.2,175.78c-11.12,20.83,33.23,77.75,33.9,81.47l31.93-9.99c0,0-18.32-27.25-24.92-37.92
				c-15.71-25.41-18.28-56.59-20.83-80.76c-10.9-103.19,7.84-168.34-66.82-228.87C827.56,1578.67,821.97,1576.9,816.48,1578.38z"/>
			<path class="st6" d="M862.82,1901.97l3.15,41.44l7.45,0.35l3.82-38.48c19.82,5.09,33.97,41.09,33.97,41.09
				c13.65,4.92,48.35,8.33,60.72,1.98c3-12.1-28.66-20.64-28.66-20.64c-2.87,3.39-19.78,5.96-25.78,2.32
				c-22.08-18.86-34.08-46.24-38.76-71.71C878.72,1858.32,845.04,1860.71,862.82,1901.97z"/>
		</g>
		<g>
			<g>
				<g>
					<path class="st3" d="M666.79,1254.49l-38.27-5.73l3.05,35.52c0,0,7.32,16.09,15.82,17.18l31.31-8.48L666.79,1254.49z"/>
				</g>
			</g>
		</g>
		<g>
			<path class="st3" d="M593.11,1203.13c9.88,41.26,44.16,68.41,76.56,60.66c32.4-7.76,50.66-47.5,40.79-88.75
				c-9.88-41.26-44.16-68.42-76.56-60.66C601.49,1122.14,583.23,1161.87,593.11,1203.13z"/>
			<path d="M695.27,1185.87c1.43,2.87,4.91,4.03,7.77,2.6c2.86-1.43,4.03-4.91,2.6-7.77c-1.43-2.87-4.91-4.03-7.77-2.6
				C695.01,1179.53,693.85,1183.01,695.27,1185.87z"/>
			<path d="M649.76,1197.1c1.54,3.1,5.31,4.36,8.41,2.82c3.1-1.55,4.36-5.31,2.82-8.41c-1.54-3.1-5.31-4.36-8.41-2.82
				C649.48,1190.23,648.22,1194,649.76,1197.1z"/>
			<g>
				<path class="st5" d="M642.82,1191.9c0.43-0.21,0.79-0.57,1.01-1.04c3.14-6.78,11.64-8.1,11.72-8.12
					c1.19-0.18,2.02-1.28,1.84-2.47c-0.17-1.19-1.27-2.02-2.46-1.85c-0.44,0.06-10.91,1.64-15.06,10.6
					c-0.51,1.09-0.03,2.39,1.06,2.9C641.56,1192.22,642.25,1192.19,642.82,1191.9z"/>
			</g>
			<g>
				<path class="st5" d="M707.91,1177.47c0.21-0.1,0.41-0.24,0.58-0.42c0.85-0.86,0.84-2.24-0.02-3.09
					c-6.65-6.57-14.86-3.85-15.2-3.73c-1.14,0.39-1.74,1.63-1.35,2.77c0.39,1.13,1.63,1.74,2.76,1.35c0.27-0.09,6.04-1.92,10.72,2.7
					C706.09,1177.74,707.1,1177.88,707.91,1177.47z"/>
			</g>
			<path class="st4" d="M691.55,1198.47c3.18,3.27,5.97,6.64,9,8.55c1.02,0.65,1.35,2.01,0.76,3.06c-2.45,4.35-9.61,7.93-14,9.79
				c-0.64,0.27-1.17-0.57-0.64-1.03c4.43-3.89,6.33-6.75,7.13-8.32c0.4-0.78,0.39-1.7-0.01-2.48c-0.91-1.79-2.72-5.45-3.94-8.49
				C689.42,1198.52,690.76,1197.66,691.55,1198.47z"/>
			<path class="st3" d="M608.71,1203.39c7.87,6.13,10.19,16.32,5.18,22.76c-5.01,6.44-15.46,6.7-23.33,0.57
				c-7.87-6.13-10.19-16.32-5.18-22.76C590.38,1197.53,600.83,1197.27,608.71,1203.39z"/>
			<g>
				<path class="st4" d="M604.22,1224.28c0.29-0.15,0.56-0.36,0.77-0.64c3.02-4.02,3.31-8.54,0.76-12.09
					c-2.61-3.63-7.45-5.29-11.52-3.95c-1.14,0.38-1.76,1.61-1.39,2.76c0.38,1.14,1.61,1.77,2.76,1.39c2.23-0.73,5.13,0.3,6.6,2.35
					c1.42,1.98,1.17,4.43-0.7,6.92c-0.72,0.96-0.53,2.33,0.43,3.05C602.62,1224.59,603.51,1224.64,604.22,1224.28z"/>
			</g>
			<path class="st0" d="M655.73,1231.37c-0.91-1.23,0.07-2.95,1.6-2.77c3.87,0.46,10.27,1.09,16.38,1.09
				c6.11,0,12.51-0.63,16.38-1.09c1.52-0.18,2.51,1.54,1.6,2.77c-2.81,3.79-8.61,9.54-17.97,9.54
				C664.34,1240.9,658.53,1235.16,655.73,1231.37z"/>
		</g>
		<path class="st5" d="M592.31,1199.48c38.68-5.18,92.8-44.59,97.23-64.81c-7.48-24.29-47.34-36.5-69.85-25.25
			C597.19,1120.68,575.93,1168.91,592.31,1199.48z"/>
		<path class="st0" d="M954.15,1491.96L954.15,1491.96c-5.15-1.68-7.96-7.22-6.28-12.36l59.7-182.89c1.68-5.15,7.22-7.96,12.36-6.28
			v0c5.15,1.68,7.96,7.22,6.28,12.36l-59.7,182.89C964.83,1490.83,959.29,1493.64,954.15,1491.96z"/>
		<path class="st3" d="M985.86,1426.42l12.16-37.26c0,0,10.54,21.44,0,41.78c-10.54,20.35-20.58,21.26-20.58,21.26L985.86,1426.42z"
			/>
		<path class="st3" d="M968.48,1416.45c-3.08-7.23-10.32-25.33-3.08-25.25c7.24,0.08,8.42,8.87,8.42,8.87L968.48,1416.45z"/>
		<g>
			<g>
				<g>
					<g>
						<path class="st3" d="M370.41,1307.54c16.42-16.56,5.65-33.55,5.65-33.55c9.01-1.93,56.54,70.07,77.04,115.83
							c35.75-36.03,98.74-84.69,115.78-87.53c0,0,22.98-6.18,31.24,21.61c7.37,24.8-21.37,42.37-21.37,42.37
							s-122.96,86.81-141.14,79.09C409.3,1433.35,383.69,1330.03,370.41,1307.54z"/>
					</g>
				</g>
			</g>
			<g>
				<g>
					<g>
						<g>
							<path class="st3" d="M344.74,1305.49c10.03,0.61,22.44-4.35,26.31,4.65l19.8-9.65l1.2-11.94
								c-17.02-27.26-58.49-35-62.6-35.36c-10.67-0.94-15.62-2.04-16.46-0.61c-0.83,1.43-3.45,10.92,12.03,12.78
								c19.43,2.33,6.53,17.87-32.88,3.08c-9.87-3.7-28.44,1.1-21.72,8.32C277.82,1284.7,299.09,1302.71,344.74,1305.49z"/>
						</g>
					</g>
				</g>
			</g>
		</g>
	</g>
</g>
<g>
	<path class="st14" d="M1417.52,750.3c0,9.04-1.55,17.79-4.45,26.1c-14.54,41.74-63.07,72.4-120.72,72.4
		c-57.64,0-106.17-30.66-120.71-72.4c-2.91-8.31-4.45-17.06-4.45-26.1H1417.52z"/>
	<path class="st12" d="M1417.52,750.3c0,9.04-1.55,17.79-4.45,26.1h-241.42c-2.91-8.31-4.45-17.06-4.45-26.1H1417.52z"/>
	<path class="st15" d="M1554.47,328.05c0-144.64-117.15-261.91-261.74-262.12c-142.61-0.2-259.89,114.72-262.45,257.31
		c-1.12,62.36,19.55,119.86,54.9,165.39c44.73,57.61,69.55,128.17,69.55,201.11v1.29h275.23v-1.29
		c0-73.04,25.01-143.61,69.74-201.35C1534.04,444.08,1554.47,388.45,1554.47,328.05z"/>
	<g>
		<path class="st0" d="M1332.01,661.37c-0.73,0-1.47-0.12-2.2-0.37c-3.5-1.22-5.34-5.04-4.12-8.53
			c0.31-0.89,31.21-89.94,53.67-180.62c39.81-160.73,19.33-186.86,8.67-190.63c-31.33-11.09-56.27,5.32-71.68,21.03
			c-4.53,4.62-8.87,9.83-12.96,15.51c6.69,11.57,12.72,24.36,17.78,37.87c13.88,37.08,17.57,71.72,9.87,92.65
			c-5.94,16.15-18.57,24.34-35.56,23.06c-16.03-1.21-27.76-10.49-33.91-26.84c-7.06-18.75-6.15-46.33,2.5-75.65
			c5.46-18.52,13.64-36.33,23.53-51.68c-9.24-14.62-19.94-27.21-31.56-35.67c-17.25-12.57-33.45-13.12-48.15-1.63
			c-30.35,23.73-31.52,95.09-3.36,206.38c21.71,85.8,53.56,165.12,53.88,165.91c1.38,3.43-0.28,7.34-3.71,8.72
			c-3.43,1.39-7.34-0.27-8.72-3.71c-0.32-0.8-32.48-80.85-54.41-167.52c-30.01-118.57-27.3-192.7,8.07-220.35
			c19.43-15.19,42.26-14.7,64.3,1.36c11.04,8.05,21.96,20.12,31.85,34.88c3.52-4.56,7.19-8.81,10.99-12.68
			c25.64-26.15,56.09-34.78,85.73-24.28c18.45,6.53,26.02,31.37,23.14,75.93c-2.13,32.86-9.96,76.82-23.29,130.63
			c-22.61,91.27-53.7,180.84-54.01,181.73C1337.38,659.63,1334.78,661.37,1332.01,661.37z M1295.23,330.29
			c-7.58,12.87-13.88,27.34-18.31,42.34c-7.73,26.19-8.78,51.29-2.81,67.14c4.31,11.43,11.62,17.39,22.38,18.2
			c11.09,0.84,18.07-3.72,21.98-14.32C1327.34,419.51,1316.56,370.2,1295.23,330.29z"/>
	</g>
	<path class="st14" d="M1406.76,758.88h-228.8c-27.28,0-49.39-22.11-49.39-49.39v-2.07c0-27.28,22.11-49.39,49.39-49.39h228.8
		c27.28,0,49.39,22.11,49.39,49.39v2.07C1456.15,736.76,1434.03,758.88,1406.76,758.88z"/>
	<path class="st15" d="M1737.65,338.83h-85.7c-12.2,0-22.09-9.89-22.09-22.09l0,0c0-12.2,9.89-22.09,22.09-22.09h85.7
		c12.2,0,22.09,9.89,22.09,22.09l0,0C1759.74,328.94,1749.85,338.83,1737.65,338.83z"/>
	<path class="st15" d="M932.76,338.83h-85.7c-12.2,0-22.09-9.89-22.09-22.09l0,0c0-12.2,9.89-22.09,22.09-22.09h85.7
		c12.2,0,22.09,9.89,22.09,22.09l0,0C954.85,328.94,944.96,338.83,932.76,338.83z"/>
	<path class="st15" d="M987.23,157.5l-68.2-51.9c-9.71-7.39-11.59-21.24-4.2-30.95l0,0c7.39-9.71,21.25-11.59,30.95-4.2l68.2,51.9
		c9.71,7.39,11.59,21.25,4.2,30.95l0,0C1010.79,163,996.93,164.89,987.23,157.5z"/>
	<path class="st15" d="M1593.12,157.5l68.2-51.9c9.71-7.39,11.59-21.24,4.2-30.95l0,0c-7.39-9.71-21.24-11.59-30.95-4.2l-68.2,51.9
		c-9.71,7.39-11.59,21.25-4.2,30.95l0,0C1569.55,163,1583.41,164.89,1593.12,157.5z"/>
	<path class="st15" d="M987.23,503.37l-68.2,51.9c-9.71,7.39-11.59,21.25-4.2,30.95l0,0c7.39,9.71,21.25,11.59,30.95,4.2l68.2-51.9
		c9.71-7.39,11.59-21.24,4.2-30.95l0,0C1010.79,497.87,996.93,495.98,987.23,503.37z"/>
	<path class="st15" d="M1593.12,503.37l68.2,51.9c9.71,7.39,11.59,21.25,4.2,30.95l0,0c-7.39,9.71-21.24,11.59-30.95,4.2l-68.2-51.9
		c-9.71-7.39-11.59-21.24-4.2-30.95l0,0C1569.55,497.87,1583.41,495.98,1593.12,503.37z"/>
</g>
<g>
	<path id="Vector_25_1_" class="st14" d="M1349.2,1408.54c0,0-19.71-37.19-27.59-76.63c-6.85-33.7-6.53-73.95-5.69-95.45
		c0.19-4.89,6.61-6.56,9.17-2.38c12.4,20.28,34.83,61.04,39.87,97.86c3.61,25.41,5.93,50.98,6.96,76.63L1349.2,1408.54z"/>
	<path id="Vector_26_1_" class="st14" d="M1369.82,1408.54c0,0,13.14-45.46,27.59-75.79c10.51-22.05,34.42-48.45,46.7-61.22
		c2.32-2.42,6.37-0.34,5.75,2.96c-3.15,16.81-10.44,49.95-22.35,72.58c-16.56,31.46-44.13,61.47-44.13,61.47H1369.82z"/>
	<path id="Vector_27_1_" class="st12" d="M1302.24,1368.21c-1.88-3.68,1.65-7.78,5.56-6.46c9.94,3.35,19.14,8.67,27.04,15.67
		c14.7,13.36,17.44,28.58,17.44,28.58l-5.06,1.7C1347.22,1407.71,1319.83,1402.72,1302.24,1368.21z"/>
	<path id="Vector_28_1_" class="st12" d="M1405.1,1261.92c-0.34-4.7-6.37-6.41-9.13-2.58c-10.26,14.28-27.49,42.42-33.12,76.91
		c-7.06,43.04,1.16,72.33,1.16,72.33h5.81c0,0,21.39-40.53,29.73-67.99C1407.42,1314.66,1406.41,1280.24,1405.1,1261.92z"/>
	<path id="Vector_29_1_" class="st12" d="M1383.38,1408.54c0,0,12.3-40.98,54.4-56.59c2.45-0.91,4.81,1.56,3.82,3.97
		c-5.55,13.54-21.37,45.88-48.09,52.6L1383.38,1408.54z"/>
	<path id="Vector_23_1_" class="st9" d="M1420.64,1401.61h-97.44l12.51,99.83h72.43L1420.64,1401.61z"/>
</g>
<g>
	<g>
		<path class="st6" d="M1315.87,1479.67V1494h3.9c1.89,0,3.43,1.54,3.43,3.43v0.58c0,1.89-1.53,3.43-3.43,3.43h-166.27
			c-2.2,0-3.99-1.78-3.99-3.99v-20.64c0-2.2,1.79-3.99,3.99-3.99h166.27c1.89,0,3.43,1.54,3.43,3.43l0,0c0,1.89-1.53,3.43-3.43,3.43
			H1315.87z"/>
		<path class="st0" d="M1316.36,1494h-145.42c-1.61,0-2.91-1.3-2.91-2.91v-8.5c0-1.61,1.3-2.91,2.91-2.91h145.42V1494z"/>
	</g>
	<g>
		<path class="st14" d="M1134.82,1448.74v15.86h-3.9c-1.89,0-3.43,1.7-3.43,3.79v0.64c0,2.1,1.53,3.79,3.43,3.79h166.27
			c2.2,0,3.99-1.97,3.99-4.41v-22.84c0-2.44-1.79-4.41-3.99-4.41h-166.27c-1.89,0-3.43,1.7-3.43,3.79l0,0
			c0,2.09,1.53,3.79,3.43,3.79H1134.82z"/>
		<path class="st0" d="M1134.32,1464.59h145.27c1.69,0,3.06-1.37,3.06-3.06v-9.72c0-1.69-1.37-3.06-3.06-3.06h-145.27V1464.59z"/>
	</g>
	<path class="st6" d="M1298.71,1426.46H1147.1c-3.35,0-6.06-2.71-6.06-6.06v-13.58c0-3.35,2.72-6.06,6.06-6.06h151.61
		c3.35,0,6.06,2.71,6.06,6.06v13.58C1304.78,1423.75,1302.06,1426.46,1298.71,1426.46z"/>
	<path class="st9" d="M1310.9,1441.15h-154.57c-2.53,0-4.58-2.05-4.58-4.59v-5.52c0-2.53,2.05-4.58,4.58-4.58h154.57
		c2.53,0,4.58,2.05,4.58,4.58v5.52C1315.48,1439.1,1313.43,1441.15,1310.9,1441.15z"/>
</g>
</svg>
